<?xml version="1.0" encoding="utf-8"?>
<svg version="1.2" baseProfile="tiny-ps" viewBox="0 0 300 300" xmlns:xlink="http://www.w3.org/1999/xlink" xmlns="http://www.w3.org/2000/svg">
  <title>Vœrynth Système</title>
  <g>
    <g fill="#f59b05" transform="matrix(.1 0 0 -.1 0 300)">
      <path d="M0 1500V0h3000v3000H0V1500z" />
    </g>
    <g fill="#ae6b0d" transform="matrix(.1 0 0 -.1 0 300)">
      <path d="M0 1500V0h3000v3000H0V1500zm970 629 50-42v-16c0-9 7-27 17-40l16-24-62 42c-34 23-78 57-98 74l-36 32-18 40c-19 41-24 86-12 98l6 7 43-64 43-64 51-43zm-210 82c28-37 128-120 212-175l56-38 5-19c3-10 3-19 1-19-20 0-157 68-204 101l-59 41-27 39-27 39-4 53-4 52 13-20c7-12 24-36 38-54zm827-47 114-12 15-20 14-21 32-3 31-3 20-27 19-26-7-11-7-12-11 9-12 9-44-6-44-6-4-10-3-11 37 2 38 1-28-4-27-4 5-10 6-9h-19c-11 0-25-6-31-14l-12-15 11-21 12-22 31-13c18-8 26-14 20-15-7 0-13-4-13-10v-10h18c9 0 31-11 47-25l30-24-15-1h-15l32-25 31-25 11-31 11-31-17 13-16 14 8-25c4-14 10-50 12-81l5-57-16-30c-9-17-16-37-16-44v-12l14 14c17 18 36 75 36 106v23l35 17 35 16 51 56 50 55 21 44 21 45 23 10 24 11 22-11 23-11h-21l-20-1-29-30c-30-31-24-40 9-15l20 15h55l10-19 11-19-18 5-17 4-48-21c-26-11-47-23-47-25 0-1 18-1 40 2l40 6 15-13c8-7 15-19 15-27v-15l-12 9-13 10-36-4-35-5-13-20-12-20 6-30 7-29 21-8 20-8-17-6-16-6-24 11-24 11-7 26-7 26-21-30c-11-17-43-51-70-77l-49-48h23l24-1-25-14c-14-8-39-14-56-15h-32l-12 15-12 14 7 11 6 10-6 28c-7 30-51 89-60 80-3-3 6-23 20-44l27-39-6-34-5-33 28-28 28-29 56-16 56-16 42 23c23 13 51 29 63 35 11 7 30 13 42 13h21l15-17c8-10 19-25 23-33l8-15-14 13-13 12h-105l-5-8-5-9 44 1 45 1 28-28c15-15 43-38 62-50l34-22 30-49 30-49 4-69 4-69-16-44-17-44-40-39c-21-22-55-47-75-57l-35-17-53-5-52-5-52 22-53 23-42 47-43 48-12 40c-23 76-11 171 29 223l19 24v-18c0-10-7-29-16-42l-16-25-5-64-6-64 23-46 22-46 44-39 45-39 49-12 49-12 33 7c74 16 155 80 182 147l16 37v106l-19 40-19 40-40 39-41 39-15-6-16-6v14c0 18-6 21-57 30l-43 7v-22h40l21-21 21-21-6-29-5-29h79v-208l-46-45-46-45-50-5-49-6-22 8c-12 5-37 25-56 45l-35 36-4 86-5 87 12-7 11-7v-139l36-40 36-40h126l34 38 35 39 7 75c8 86 3 104-27 112-29 8-127 8-166 0l-31-6v-169l25-24 24-25h65l28 27 28 27v127l-57-3-58-3-3-39-3-38 13 4 13 5v38l33 3 33 3-3-53-3-53-26-9-27-9-18 8-19 9 32 4 32 3 11 14 12 15-6 26-7 25-12-4c-7-2-13-13-15-25l-3-22h-59v110h160v-144l-32-33-32-33h-84l-31 36-32 36 3 91 3 92 80 5 80 5 3 23 3 22h-15c-8 0-31 9-51 21l-35 21-28-7c-15-4-32-11-39-17l-13-10 6-24 6-24h-15c-21 0-30 17-29 51l1 29h-138l-6 10c-3 6-11 10-16 10h-10l6-22 7-21-17 6c-9 4-21 7-26 7s-9 8-10 18l-1 17-5-12-5-13h-38v10c0 5 5 20 11 34l12 25-37 41-36 40v-12c0-7 12-24 26-39l26-27-7-21c-8-27-32-39-102-52-76-13-123-28-123-40v-9l26 11 27 10 53-16 53-15 23-33 23-32-2-49-1-48-11-11-11-11-1 19-1 20-14-50c-7-27-14-55-14-62 0-20 48-70 85-87l36-17 34 11 34 11 30-16c17-8 35-24 41-34 14-26 13-38-2-23-17 17-26 15-30-5l-4-18-14 30-15 30-28 3c-16 2-36 0-45-4l-17-8 40-5 40-6 3-20 3-20-76 3-76 4-6 14-5 14h-33l-13 29-13 29-39 26-40 26v16c0 9 5 34 11 55l12 38-17 25-16 26-26 6-25 7-10 24c-5 13-9 39-9 57v33l25 38c32 46 26 57-8 15-31-37-37-37-37-3v26l-6-6-7-6 13-95 13-95-11-39-12-39-19-18-20-17 5 38 6 39-19-35-18-35-44-22c-24-12-52-30-62-39l-19-17v-23c0-12 3-29 6-38l6-16h74l22-16 22-15v-20c0-27-12-24-45 11-16 16-33 30-39 30h-9l22-24 23-25-7-10c-3-6-13-11-20-11h-14l-16 30c-15 30-26 36-38 23l-7-6 17-12 16-12-6-17-7-16-17 9c-10 5-26 12-36 15l-17 5-9 24c-5 12-12 57-16 99l-7 76 41 21 41 21 15 24 16 24-3 73-3 74-18-40c-10-22-32-63-49-91l-31-51-27-17-28-16h-78l-21 15-22 16-10 36-10 36 14 33 14 33 65 70 65 69 7 26c3 14 3 37 0 50l-6 24-16 6-16 6-39-10-39-11-18 10-17 10 18 6c9 4 17 11 17 16v9l-28-6-28-6-13 16-13 16 38 1 39 1-35 10c-19 5-42 17-50 25l-15 16 20-7c11-4 48-12 81-17 101-14 131-32 154-93l10-28-6-35-7-35-74-85-74-85 3-41 3-41 28-16 27-15 38 20 37 20 56 109 55 108 60 56c32 30 83 77 112 104l53 50 39-7 38-6 7 10 6 11h-53l12 15c16 19 11 19-35-1l-38-15-32-35-32-34h-54l33 40 33 40h61l12 12c7 7 12 16 12 22v9l-18-16-19-17h-46l19 22 19 21-20-7c-23-9-24-9-50-7l-19 1 22 16c12 8 22 20 22 27v11l-12-12-12-12h-66v-10c0-5 7-10 17-10h16l-18-20c-10-12-34-30-52-41l-33-21-25 9-25 8 64 48c35 26 68 47 73 47 4 0 17 7 28 16l20 15-42-7-43-7v12c0 6 4 11 8 11 5 0 16 6 25 13l17 12h-100v-23l-45-26c-24-15-58-29-74-32l-31-6-30 12-31 13 88 35c48 19 106 36 128 39 22 2 47 7 55 11l15 6-50 5c-27 4-52 4-55 1-3-4-31-16-63-28l-59-22h-99l-24 16c-14 9-25 20-25 25v9h64c35 0 88 5 117 11 30 6 77 10 104 10l50-1 15 11 15 10-40-6-41-6-18 20-19 21-8-6c-5-3-7-9-4-14l5-8-25-6c-13-3-51-9-84-12l-59-7-45 7-45 7-38 35-39 36 18-6c11-4 62-11 115-17l97-11 57 6 56 7 7-11 6-10h68l6 10 6 10h-31c-32 0-70 15-70 28v7l48-2 47-3-20 9c-11 5-29 10-41 10l-21 1-18 20c-25 28-15 33 35 15 49-17 60-18 60-6 0 4-20 14-45 21l-46 13-14 20c-8 12-13 22-12 23 4 4 116-31 150-47l27-12 5-21c27-138 35-156 83-208 14-16 30-28 36-28 5 0-4 15-22 33-38 39-58 86-66 152l-5 50 12-37c7-20 16-40 21-45l9-8-7 35-6 34-32 33-32 33-70 26-70 27-23 23c-23 23-31 54-14 54 5 0 14-7 21-15 6-8 36-23 66-35 30-11 76-31 103-45l49-24 21-27 21-27v-119l30-30 31-30 32 6c18 4 50 11 72 15l40 8-25 2c-14 1-31 5-39 10l-14 9 6 36 6 36h-8c-4 0-13-10-20-22l-11-23 4 50c3 28 8 59 12 70l8 20-17-14-17-13v13c0 8 9 34 20 58 25 55 25 58-2 35l-21-19 23 42 23 42-31 30c-18 16-32 34-32 39v11l43-24c46-27 57-30 57-15 0 6-5 10-12 10-17 0-48 31-48 48v14l16-13 17-14 114-11zm-732-151c44-22 99-47 123-54l43-13 19-27 20-27-100 24c-112 26-162 49-216 96l-37 33-13 32c-8 18-14 41-14 51v18l48-45 47-46 80-42zm-20-85c33-11 96-27 139-37l80-17 4-12 4-12H884l-51 15c-59 18-98 45-119 86l-15 30 38-17c21-9 65-25 98-36zm319-303c-16-14-44-29-62-36l-33-11-25 6c-35 9-30 22 17 40 23 9 57 28 78 41l36 25 9-21 10-20-30-24zm126-35 15-10-33-30-32-30h-37c-20 0-34 2-32 4 25 23 92 76 97 76 4 0 14-5 22-10zm970-474v-83l-46-43c-58-54-71-43-16 13l42 43v154h20v-84zm-602 997 32-4-5-10-6-9h9c6 0 12 7 16 15l5 15-42-2-42-1 33-4zm92-28c-7-8-18-15-24-15-17 0-56-43-56-61l1-14 17 21c10 12 32 29 49 37 17 9 33 23 36 32l6 15h-8c-5 0-14-7-21-15zm-120-164c0-11 69-55 76-49 2 3-14 17-36 32l-40 26v-9zm-30-27c0-4 34-41 75-81 74-72 84-78 66-44-12 21-141 136-141 125zm-30-38c0-5 17-29 39-55 21-25 44-57 50-69 19-36 25-18 7 20-16 34-96 120-96 104zm-40-30c0-6 10-20 22-33l21-23-1-30-1-30 10 5c5 4 9 17 9 30v25l-30 32c-16 18-30 29-30 24zm230-2c0-6 14-23 30-39 17-16 30-24 30-19 0 6-13 23-30 39-16 16-30 24-30 19zm-47-108c4-10 10-29 13-43l7-26-48 33-48 33 5-14c3-8 26-27 51-43l47-29 7 6 6 7-12 40c-6 21-17 42-23 46l-11 7 6-17zm111-65c6-22 15-43 19-47l7-7v15c0 23-21 78-30 78h-8l12-39zm-738-638-7-16 11-11 10-10v27c0 31-5 34-14 10zm404 5c0-9 5-20 10-23l10-6v8c0 4-5 15-10 23l-10 15v-17z" />
    </g>
    <g fill="#5d4117" transform="matrix(.1 0 0 -.1 0 300)">
      <path d="M0 1500V0h3000v3000H0V1500zm864 762c16-26 57-76 91-112l61-65 17-37c9-21 13-38 9-38s-45 29-92 64l-85 64-22 40-23 40v92h8c4 0 20-21 36-48zm-136 4c24-53 142-162 248-228 38-24 81-75 71-84-8-8-147 55-201 91-95 63-146 136-146 210v35h8c5 0 14-11 20-24zm722-65c0-16 55-29 150-35l95-6 16-20 16-19 29-7c16-3 39-13 52-20l22-14v-60h-10c-5 0-10 5-10 10v10h-85l-15-11-15-11 18 6c21 7 77-4 77-15v-8l-37 5-38 4 33-10c46-15 40-22-15-19l-48 3-3-21-3-21 27-21 27-21h21l21-1-17-13-17-12 33-12c18-7 41-21 51-32l18-20h-14l-14-1 18-10c18-11 47-66 47-90v-11l-15 12-15 12 15-35c8-20 16-49 16-64l2-28 4 22 4 21 23 6 24 6 57 57 57 57 23 46c13 25 30 52 39 59l15 12 27-3 27-3 5-13 4-12-14 5-14 6-35-31-34-31 40 20c22 12 45 21 52 21 17 0 43-29 43-47v-15l-14 11-14 12-26-12-27-13 31-12 30-13-1-28-1-28-5 13-5 12h-78l-15-23-15-23 13-27 12-27h25l25-1-19-14c-11-8-30-15-41-15h-22l-15 18c-9 9-17 22-19 28l-4 12-63-69-64-69h24l23-1-35-19c-36-20-67-24-94-14l-16 6v98l-30 32-31 33 26-39 25-39v-85l30-26 31-25 41-12 42-11 27 6c15 3 44 17 64 31l38 25h60l19-17 18-16v-40l-18 16-19 17h-39c-21 0-44-4-51-8l-11-7h100l21-25c12-14 40-38 63-53l41-28 26-52 27-52 6-46 6-46-15-54-16-55-38-43-37-44-50-23-51-24h-110l-41 19c-22 10-56 33-76 50l-36 31-23 48-22 47v130l22 48c23 46 34 56 46 38l5-9-21-37-22-37-1-68v-68l29-47 30-47 42-31 43-30 54-5 54-4 35 11c20 7 55 27 80 46l44 34 23 52 22 53-5 54-6 53-25 44c-29 49-70 85-96 85h-18l-5 20-5 20-44-1-43-1 20-5c11-3 28-12 38-21l17-15v-57h68l6-16c3-9 6-56 6-106v-91l-53-54-54-53h-126l-43 44-44 43v173h17l6-82 6-83 36-32 35-33h104l43 42 43 42v177l-107-3-108-3v-83l1-82 19-20 20-20 32-6 32-6 31 30 30 30v112h-120v-59l10-6 10-6v25c0 31 7 35 48 29l32-5v-74l-16-22-16-23-36 3-35 3-5 13-4 14 28-3c16-2 35 0 42 4l12 8v59h-20v-50h-70v121l83-3 82-3 3-73 3-73-35-35-34-34h-101l-26 34-26 34 3 98 3 99 83 3 82 3v30l-17 5c-10 3-30 12-45 20-14 8-39 14-56 14h-30l-12-15-12-14 6-19 7-20-17-6-17-6-13 17-14 18 4 26 5 26-54-5-53-4-31 15-31 15 10-19 11-19h-52l-5 13-5 13-30-4-30-4 14 35 15 35-26 23-27 23 22-23 21-24-10-23-11-23-26-10c-14-6-55-15-91-21-36-7-72-16-80-21l-15-9 31 6 30 6 41-11 41-11 31-35 31-36v-39c0-21-5-51-11-67l-10-27-8 12-7 12-13-48-12-47 46-44 47-44 54 7 55 6 28-15c29-15 41-34 41-63l-1-17-14 19-15 20v-56l-14 11c-8 7-17 23-20 36l-6 25-23 5-22 6-25-11-25-10 31 5 32 6 16-16c9-9 16-25 16-36v-19h-10c-5 0-10 4-10 8v8l-72 2-72 2-8 15-9 14-12-5-12-4-12 29-11 30-47 33-46 33 6 25c4 14 9 41 12 60l5 35-19 16c-10 8-30 20-45 27l-27 11-12-42c-12-46-44-97-61-97h-10l7 18c4 9 9 26 12 37l4 20-15-32-15-33-56-26-57-27-11-24-10-23 11-25 12-25 24 6 24 6 31-16 31-17v-72l-25 23-25 23v-16c0-37-46-30-61 9l-9 24-12-1-13-1 13-5 12-5v-22c0-33-7-36-49-15l-39 18-6 18c-4 10-10 55-13 100l-6 82 46 27c25 16 51 37 57 49l11 21-3 64-3 65-28-60c-15-32-39-74-54-93l-26-34-35-15-35-15-33 7-33 6-25 30-26 31v29c0 42 13 64 84 140l62 65 13 32 14 33-12 25-11 26-60-7-60-7-30 30c-37 37-37 42-2 43h27l-34 12-34 12-5 14-5 14 24-6c13-4 49-10 79-14 66-8 109-24 134-51l18-20 5-41c3-22 3-51-1-65l-6-26-58-62c-74-80-92-107-92-137v-24l17-19 16-18h54l26 20 25 20 57 110 56 110 94 81c52 44 95 85 95 90s15 15 34 23c18 8 36 18 40 24 12 19-72-30-99-58l-29-30h-71l46 45c26 24 44 47 41 50-4 3 0 11 8 16l15 11-18-6c-10-3-23-6-28-6h-8l5-15 6-14-25-25c-27-27-68-42-92-32-20 7-19 23 3 31 17 6 62 44 96 83l18 21-29-11-30-11 1-13 1-12-39-31-39-31h-32c-17 0-34 3-38 6-6 6 118 104 133 104 5 0 11 3 13 8l5 7-28 1-29 1 2-10c1-5-17-25-41-43l-44-34h-36c-35 0-72 14-62 23 3 2 35 18 71 35s73 40 83 50l17 20-14 5-15 5 2-15 1-15-54-29-54-29h-34c-37 0-73 15-73 30v10h21c11 0 58 15 103 34l83 35 24-5 24-4-27 11-28 11-67-28-68-27-45-4-45-4-34 19c-19 10-37 24-39 30l-4 12h64c35 0 94 7 132 15l69 15 41-5 41-5-32 9c-18 5-41 15-50 22l-17 14 7-12 7-11-53-13-52-13-67 1h-66l-45 26c-25 15-48 34-51 43l-6 17 32-8c18-4 98-11 178-15s159-11 175-14l30-6-30 11c-16 7-37 18-47 26l-16 14-7-10-6-11h-63c-80 0-171 17-217 41l-37 18-22 36c-12 20-20 38-17 41 2 3 31-6 64-19s100-34 149-46 103-27 121-32c17-5 56-12 85-14s42-2 28 1c-46 9-75 24-89 46l-13 21 29-6c15-4 39-9 53-12l25-6-35 16c-41 19-70 44-70 60v12l80-28c45-15 87-32 95-39l13-11 12-67 11-67 25-42c13-23 29-45 35-49 6-3-1 11-14 32-28 43-45 98-49 158l-2 39-31 18c-16 11-46 24-65 30s-49 18-67 26l-31 15-17 35c-21 43-14 51 22 25 16-11 60-33 98-48 39-15 87-38 108-51l39-24 15-36 15-36-5-25c-3-13-1-40 5-58l9-34 31-16 31-16 24 11c13 6 41 12 61 12l37 2-30 4c-16 3-36 10-43 15l-13 11 7 31 6 31-15-20-15-20-7 7-7 7 10 43c5 24 13 52 17 63l7 20-22-25-21-25 7 35c3 19 13 47 20 62 16 31 18 52 3 26-5-10-15-18-20-18h-11l27 46 27 46-13 9c-8 5-16 9-19 9-9 0-42 61-36 67 3 3 19-6 36-21 17-14 38-26 45-26h13l-29 29c-29 30-37 51-19 51 6 0 10-4 10-9zm-754-66c16-42 188-144 295-176l40-13 15-28 15-29-23 6c-13 2-53 11-90 20-158 35-254 107-272 203l-5 32h10c5 0 12-7 15-15zm1558-947c3-13 3-55-1-94l-6-72-43-36c-23-20-48-36-54-36h-12l46 51 46 51v158h9c5 0 11-10 15-22zm-604 925c14-3 28-10 32-17l8-11v35l-32-1-33-2 25-4zm71-40c-19-13-41-33-50-46l-15-22 29 23c17 13 41 31 55 42 37 27 20 31-19 3zm-74-174c12-12 24-21 27-18 2 2-8 13-22 23l-27 19 22-24zm-57-3c0-2 8-10 18-17l17-14-14 18c-13 16-21 21-21 13zm-309-26c0-8 4-24 9-35l9-20v15c0 8-4 24-9 35l-9 20v-15zm394-58c27-29 51-52 53-52 9 0-27 40-63 70l-40 34 50-52zm-62-20c20-23 37-49 37-56 0-8 4-17 10-21l9-6-10 29-10 29-37 34-36 34 37-43zm-83 20c0-5 9-17 20-27l20-18 1-26 2-26 4 23 4 22-25 31c-14 17-26 26-26 21zm245-22c10-11 23-20 28-20h10l-18 20c-10 11-23 20-28 20h-10l18-20zm335-30-15-10h12c6 0 15 5 18 10 8 12 4 12-15 0zm-920-60-15-10h10c6 0 17 5 25 10l15 10h-10c-5 0-17-5-25-10zm455-9c19-22 55-46 55-38 0 3-17 17-37 33l-38 28 20-23zm73-8 6-28 4 19 4 18-10 10-10 10 6-29zm98-23c3-14 11-32 16-40l9-15-7 25c-3 14-11 32-16 40l-9 15 7-25zm-101-20c3-5 8-10 11-10 2 0 4 5 4 10 0 6-5 10-11 10h-10l6-10zm-349-55-20-15h11c6 0 16 7 23 15 16 19 11 19-14 0zm505-8c0-10-8-32-17-48-8-17-13-33-10-36 3-4 13 11 21 31l16 38-4 16-5 17-1-18zm-529-252v-30l5 18c2 9 2 23 0 30l-5 12v-30zm29-11c-12-19-21-41-21-47 1-7 8 2 17 18 8 17 22 38 31 48l15 17h-10c-6 0-20-16-32-36zm-9-94v-35l5 18c2 9 2 25 0 35l-5 17v-35zm-280-220v-25l5 13c2 6 2 18 0 25l-5 12v-25z" />
    </g>
    <g fill="#2a2620" transform="matrix(.1 0 0 -.1 0 300)">
      <path d="M0 1500V0h3000v3000H0V1500zm875 753c39-60 153-175 158-160l2 8 27-21c15-11 62-35 105-52 90-36 147-73 162-106l11-23v-110l25-24 24-25 23 1c13 0 32 4 42 8l20 8-12 7c-7 4-12 16-12 26v19l-15-5-15-6v35c0 20 5 48 10 63l11 27-16-13-15-12v21c0 12 7 38 15 58l15 35-15-12-15-12v11c0 7 10 29 21 49l22 38-32 31-31 31v16c0 18 15 21 25 6 3-5 15-15 27-21l21-11-17 23c-9 13-16 32-16 43v19l23-21 22-21 106-10c116-11 135-16 143-37l5-14h48l27-21 26-20v-29c0-16-4-31-9-34l-9-6-6 15-5 15h-33l-33-1 35-16 35-16-17-4-17-4 5-12 4-12h-95v-40l43-20 42-20-3-10-4-10 44-29 44-28-4-12c-3-6 3-19 11-29l16-18 2-42c2-23 3-52 3-65l1-23 41 23 41 23 50 54 49 54 16 39 15 39 31 15 30 16 23-13c13-7 24-16 24-21v-9l-18 5-19 6-19-21-19-22 22 12c12 6 31 11 42 11h20l15-22c9-12 16-32 16-43v-20l-19 24-18 24-24-17-23-16h33l15-22c9-12 16-28 16-35v-13h-15c-8 0-15 5-15 10v10h-57l-17-18-16-19 6-31 7-32h23c31 0 31-14-1-28l-26-12-29 15-30 16v41l-40-50c-21-28-48-57-60-65l-21-14 23-7 23-7-35-19-35-19-40-1h-40l25-20 25-19 47-10 47-11 18 7c10 3 32 16 49 29s43 26 57 29l25 7 30-16 30-15 6-27c8-32-2-46-15-21-6 9-16 17-24 17h-14l25-25c14-14 38-32 54-40 15-8 42-31 59-52l30-37 16-45 15-45v-92l-16-47-16-46-40-42-40-41-46-20-46-21h-61l-61-1-53 29-54 30-33 44-34 44-11 41-11 41 4 55 4 55 23 48c23 48 37 58 47 32l6-15-21-43-21-43v-108l21-43 21-43 39-33 39-34 39-11c49-15 74-15 123 0l40 12 48 43 49 44 12 36 12 36-1 52v53l-21 39c-11 22-36 54-56 72l-37 32-19-6-19-6v41h-29l14-27 15-28-6-17-5-18h81v-216l-52-51-53-52-60-3-61-2-21 14c-11 8-32 29-46 46l-27 32-6 87-7 87 19-4 19-3 3-75 3-75 31-32c18-18 37-33 44-33h12l-40 40-39 39 3 96 3 95h-12c-15 0-33 32-33 59v21l-39-6-40-6-30 10-30 11 6-15 5-14h-18c-11 0-39 6-63 14l-45 13-4 11-4 12-26-14c-15-7-47-17-71-21l-45-7 38-13c48-17 82-49 96-90l11-32-10-44-10-43-15-12-16-11-6-29-5-29 40-39 40-39h28c15 0 42 3 58 7l30 7 32-28c17-15 34-38 38-50l6-23h-14c-9 0-18 6-20 13l-5 12-1-22-1-23h-10c-5 0-10 5-10 10 0 6-4 10-10 10-5 0-10-7-10-15 0-18-19-20-25-2l-5 12-60-3-61-4-16 13c-9 8-23 14-32 14h-16l-3 22-3 23-41 35c-23 19-45 35-49 35s-9 7-12 15l-6 14 15 45 15 45-10 18-10 19-34 11-35 11-7-34-6-34-31-36-31-35-13 5-13 5-44-19c-25-11-50-26-56-34l-12-15 3-28 3-28 42-6 42-5 21-19 20-18v-57h-12c-6 0-20 7-30 17l-18 16v-16c0-9-4-19-10-22l-10-6-22 15-21 15-13-17-14-17-7 10c-5 6-21 15-37 20l-30 10-8 30c-4 17-9 63-10 104l-3 74 43 26c23 14 49 35 56 46l14 20-5 51-5 51-37-70-36-70-28-21-28-21H911l-21 20c-11 12-24 34-28 50l-9 30 9 32 9 33 57 62c32 35 66 74 75 88l17 24v54l-15 12-16 13-34-11-35-10-22 6c-22 5-78 54-78 66 0 3 7 6 16 6h17l-27 21c-14 11-26 25-26 31v10l23-6c12-4 57-13 99-20l78-14 30-22 29-21 12-40 12-39-12-40-12-40-69-74-69-75-7-26-6-25 16-25 16-25h21c11 0 33 7 48 14l28 15 59 116 59 116 60 51c33 28 66 56 73 63l12 11-35-4-35-4v11c0 7 12 23 28 37l27 26-29-21-29-21h-79l6 15 5 15h-89v8c0 5 18 18 40 31 57 32 59 44 2 13l-48-25-24 6c-14 4-32 11-40 17l-15 10 13 9 14 8-35 7-35 7-12 15c-15 17-15 18 30 31l35 11-54 1-55 1-33 23c-18 12-33 25-33 30v7l58 1 57 1-55 12c-65 14-87 25-119 60-31 33-23 40 26 27 21-6 49-11 63-10h25l-41 13c-22 7-54 21-70 30l-30 18-23 40c-12 22-21 42-18 44 2 2 36-9 75-26 77-32 124-42 56-11-23 11-61 36-84 58l-43 38-14 32c-11 29-18 83-10 83 2 0 26-22 53-48 45-43 149-112 169-112 5 0-23 22-62 49l-70 49-31 50-32 49v93h10c5 0 15-10 21-22 26-48 74-99 152-159l82-62-67 64-66 64-13 42-12 41 7 26c3 14 10 26 15 26 4 0 25-26 46-57zm1383-1133 3-83-51-48c-80-78-99-62-25 21l45 51v151l13-4 12-5 3-83zm-583 990c3-5 8-10 11-10 2 0 4 5 4 10 0 6-5 10-11 10h-10l6-10zm9-72-19-23 23 19c12 11 22 21 22 23 0 8-8 2-26-19zm-658-31c3-10 9-15 12-12s0 11-7 18l-12 12 7-18zm48-11c11-9 24-16 30-16 12 0 7 5-24 19l-25 12 19-15zm-134-16c8-5 20-10 25-10h10l-15 10c-8 5-19 10-25 10h-10l15-10zm127-41c7-7 15-10 18-7s-2 9-12 12l-18 7 12-12zm159-11c10-14 21-24 23-22 3 3-6 15-18 27l-24 22 19-27zm-228-35c7-3 16-2 19 1 4 3-2 6-13 5l-19-1 13-5zm-70-60c23-2 59-2 80 0l37 4H885l43-4zm160-50c7-3 16-2 19 1 4 3-2 6-13 5l-19-1 13-5zm-110-20c6-2 18-2 25 0l12 5h-50l13-5zm62-53-15-10h10c6 0 17 5 25 10l15 10h-10c-5 0-17-5-25-10zm150-61v-10l10 6c6 3 10 8 10 11 0 2-4 4-10 4-5 0-10-5-10-11zm771-320-23-9 6-16c3-9 6-19 6-23v-8l75-1 75-2v25l-49 23c-54 24-56 25-90 11zm16-95c-4-4-7-43-7-86v-78l20-20 20-20h33c37 0 47 6 70 40l17 24v96h-110l1-32 2-33 4 28 4 28 37-3 37-3 3-34c2-19 1-45-3-58l-6-24-26-10-27-10-28 12c-15 6-28 15-28 20v8l42 3 43 3 3 18c2 10 0 26-4 35l-7 17-6-30-6-30h-70v120l88 3 87 3v-157l-32-31c-18-17-40-33-48-36l-15-5 21-1 22-1 36 40 37 41-3 82-3 82-95 3-96 3-7-7z" />
    </g>
    <g fill="#1b1a1c" transform="matrix(.1 0 0 -.1 0 300)">
      <path d="M0 1500V0h3000v3000H0V1500zm1200 1000-15-10h12c6 0 15 5 19 11l7 11 8-13 9-14v26l13-8c6-4 38-9 70-10l57-1-7 11-7 12 17-14 18-14 32 2c18 1 64-4 104-11l72-12-6-9-6-10 11 7 12 7 22-13c13-7 27-11 32-9 6 1 20-3 33-10l22-12-6-10-6-10 26 5 26 5-5-8-5-9 10-1c15-2 23-4 44-14l19-8-14-9-13-9 28 7 27 6v-10c0-6 10-14 22-18 12-3 28-12 35-19l12-13-7-6-6-7 14 6 15 5 27-25c15-14 34-25 43-25 8 0 15-3 15-7 0-5 16-25 35-46l34-39 10 6 9 6 10-13c5-6 8-20 6-31l-3-18 20-5c10-3 17-9 14-13-2-4 7-13 20-20 14-7 25-17 25-21 0-5 11-19 25-33s25-29 25-34 9-12 20-15l20-5-6-15-6-16 29-15 28-15-15-1-15-1 19-14 20-15h-25l6-10 6-10 10 5 9 6 1-15c1-9 2-26 3-38l1-21 13-5 13-4-13-16-13-16 17 7 17 6-5-22-4-22 23-18c12-10 16-16 8-12l-13 8 7-23 7-22-13-10-14-10 18 6 17 5 2-17c0-9 1-23 1-29-1-7 3-13 8-13h9l-4-25c-3-13-7-29-10-34l-6-9 15-6 16-6-11-20-11-20h23l-6-25-6-25h22l-13-16-13-16 13-7 13-8-17-33-17-32 11 6 11 7-7-18c-3-10-10-23-14-28-4-6-10-41-13-78s-9-73-13-80c-4-6-8-18-10-26-1-7-6-18-12-24l-10-10 6 23 6 23-11-7c-7-4-12-16-12-27v-19h24l-18-13-17-12-2-25-2-24-37-40c-20-22-34-44-32-48l5-8h-26l15-10 15-10-17-11-18-10v-41l-15 6-15 5v-30l-10 6-10 6v-31h43l-7-7c-10-11-36-12-36-2 0 5-5 9-11 9h-10l6-10 6-10h-53l12-15 12-15h-34l13-17 14-18-18 14-17 14-18-17c-10-9-21-13-25-10-3 3-3-5 0-18l5-23-10 14-9 13-16-22c-8-12-23-23-33-25-11-2-19-4-19-5s-7-3-16-5c-10-1-26-12-38-24s-26-21-32-21h-10l6-10 6-10h-8c-5 0-14 5-21 12l-12 12v-25l-9 5-9 6-5-13-5-14-24 2c-12 1-29-2-36-8l-12-10-7 7-6 6-18-16-19-17 6-8 5-9h-70l-6-10-7-11-19 6-19 6v-33l-21 5-22 6-15-16-16-16-4 12-4 11-14-15-15-14-14 6-15 5-13-10-13-11-24 3c-14 2-33 7-42 10l-16 8-21-12-21-11v22l-10-6-11-7-14 12-15 12v-21l-22 5c-13 3-40 7-62 10-21 2-45 9-52 15l-14 12 7-18 6-18-21 21-22 22h-50v10c0 6-7 10-15 10s-15 5-15 11v10l-9-6-10-5-6 10c-4 6-10 8-14 5-5-2-19 6-32 19s-33 26-44 30c-11 3-34 19-51 35-18 17-35 27-38 24-3-4-6-1-6 5s-9 14-20 17l-20 6v28l-14-5-13-5-17 16-16 16v-10c0-6-4-11-9-11h-8l2 24 3 25-14 5-14 5-1-12c0-7-5 0-11 16l-10 27-9-6-9-5v10c0 6-8 19-19 30-10 10-21 25-24 32l-5 14-12-15-11-15 6 23 7 23-13-3-13-3-1 15-1 15-12-3c-7-1-12 2-12 6 0 5-9 18-21 30l-20 22 6 10 6 10-13-2-13-3 3 22 3 21-12 8-12 7 7-14c4-8 0-5-8 6l-16 19 5 14 5 14-16-6-17-6 14 17 14 17-12-8-13-7v22l-12-7-13-8 13 17 14 16-21-4-21-4v10c0 5 5 9 11 9h10l-6 10-6 10-11-6-11-7 7 11 6 11-10 6c-5 3-10 13-10 21v15l9-5 9-6-2 16c-1 8-9 20-17 25s-10 9-5 9c6 0 1 6-9 14l-19 13-1 22-2 21h21l21 1-18 10c-9 5-21 8-26 5l-8-5 3 42 3 42-12 7-12 8h26l-17 17-17 17 12 4 11 4-15 29-15 28 13-5 14-5v15c0 8-3 15-6 14-3 0-15 1-26 2l-20 2 27 9 26 10 6 16 7 16-12 8-12 7-2 33-3 33 15-24 14-25-5 18-5 17h12l12 1-18 13-18 14 10 3 11 4-14 27-14 27 14-6 14-5v10c0 6-5 14-10 17l-10 6 10 20 11 19h-10c-5 0-12 7-15 16l-6 15 12-7 11-7-6 16-6 17h20l-6 20-6 20 16 6 16 6-12 14-12 14 18 20 17 19-7 11-6 10 8-2c4-2 10 2 11 7 2 6 8 16 14 23l11 12-7 7-6 6 20 14 20 14-5 10-6 9h32l-4 8c-3 4 3 22 13 39l17 32 7-6 6-6v29l1 29 16-20 15-20-5 23-5 22 21 1h22l-20 9-20 9h13l12 1-2 12-3 13 24 3 23 4-7-14-8-13 14 13c7 6 21 12 30 12h18l-4 20-4 19 17 6c9 3 31 23 47 44l30 38 13-4 12-5v11c0 6 3 10 8 10 4-1 13-1 21 0l13 1-5 14-6 14 17-3c9-1 23 2 31 8 17 15 40 17 47 6 3-5 11-9 17-9h12l-14 9-14 9 16 17c10 9 17 13 17 9 0-3 6-2 13 4 14 11 56 10 77-3l15-9-14 17c-7 9-12 17-10 18 2 0 13 2 24 4l20 4 6-10 6-10 14 13 14 14 28-3 27-2v16l44-1 44-1-5 8-4 7h46l-15-10zm-620-250c0-5-5-10-11-10h-10l6 10c3 6 8 10 11 10 2 0 4-4 4-10zm-292-725c-3-3-9 2-12 12l-7 18 12-12c7-7 10-15 7-18zm59-361c-3-3-12-4-19-1l-13 5 19 1c11 1 17-2 13-5zm2008-224 6-10h-10c-6 0-11 5-11 10 0 6 2 10 4 10 3 0 8-4 11-10zM680 2308c0-9-5-18-12-20l-12-4 17-53c9-29 17-59 17-67 0-7 4-15 9-18l8-6-9 48c-4 26-7 64-6 84 1 21-1 41-5 44l-7 7v-15zm185-32c10-14 19-26 22-26 7 0-17 39-28 46l-11 6 17-26zm-63-11v-30l5 18c2 9 2 23 0 30l-5 12v-30zm23-105c21-24 26-25 19-6-3 8-13 17-22 21l-16 6 19-21zm743 13c7-3 16-2 19 1 4 3-2 6-13 5l-19-1 13-5zm-906-63v-25l5 13c2 6 2 18 0 25l-5 12v-25zm1118-80c0-5 5-10 10-10 6 0 10 5 10 10 0 6-4 10-10 10-5 0-10-4-10-10zm-1020-64c0-2 9-6 20-9l20-5-6 9c-5 9-34 13-34 5zm1430-91c7-9 15-13 17-11 7 7-7 26-19 26h-10l12-15zm-44-34-5-8 24 5c14 2 25 6 25 8 0 8-39 4-44-5zm22-68c7-3 16-2 19 1 4 3-2 6-13 5l-19-1 13-5zm51-45 5-33 4 24 4 23-9 9-10 10 6-33zM326 1232l-5-9h28l-5 9c-3 4-7 8-9 8s-6-4-9-8zm1887-92v-75l4 38c2 20 2 54 0 75l-4 37v-75zm47-23v-83l-17-24-17-25 19 15c19 16 45 70 44 92v13l-10-20-9-20 3 68 2 67h-15v-83zm-240 65v-8l41 4 41 4 9-13 9-14v35h-100v-8zm40-62v-20h20v40h-20v-20zm52-12-2-37-26-20c-15-12-22-21-17-21s20 11 32 24l22 24-4 33-4 34-1-37zm50-2-2-39-17-21-17-21 23 21 22 21-4 39-4 39-1-39zm44-63-7-18 12 12c7 7 10 15 7 18s-9-2-12-12zm-441-193c3-5 8-10 11-10 2 0 4 5 4 10 0 6-5 10-11 10h-10l6-10z" />
    </g>
  </g>
</svg>