<svg class="w-8 h-8 mb-2 transition-all duration-300 text-amber-500" viewBox="0 0 594.421875 539.927490" fill="#C9A961" xmlns="http://www.w3.org/2000/svg">         <path d="M256.4 252.0 C253.6 254.2 250.6 256.2 248.2 258.8 C244.2 263.0 238.9 262.3 234.0 262.9 C232.7 263.1 231.3 262.4 229.9 262.0 C228.4 261.6 227.0 261.1 225.5 260.6 C226.6 259.1 227.5 257.5 228.7 256.2 C232.0 252.7 235.5 249.4 238.8 246.0 C239.2 245.6 239.1 244.9 239.2 244.3 C238.7 244.6 238.2 244.8 237.8 245.1 C235.8 246.7 233.7 248.3 231.8 250.0 C224.4 256.6 216.5 252.1 208.8 250.9 C208.4 250.8 207.6 249.4 207.8 249.2 C208.6 248.1 209.6 246.9 210.8 246.0 C214.9 242.8 219.2 239.7 223.3 236.5 C223.8 236.1 224.0 235.2 224.6 234.3 C224.9 233.7 224.9 233.4 224.9 233.1 C224.7 233.4 224.6 233.7 224.4 234.0 C221.0 235.9 217.6 237.8 214.3 239.6 C207.8 243.1 201.2 242.3 194.5 240.7 C192.5 240.2 190.4 240.5 188.4 240.4 C190.2 241.6 191.8 243.3 193.8 243.9 C197.0 244.9 200.5 245.3 204.1 246.0 C204.4 246.5 204.6 247.2 204.3 247.5 C194.9 257.3 186.1 267.6 173.0 273.1 C163.8 276.9 154.8 274.6 145.7 272.8 C145.2 272.7 144.8 271.6 144.4 270.9 C144.9 270.5 145.5 270.1 146.1 269.8 C158.5 263.2 169.8 255.1 180.2 245.7 C183.5 242.6 186.9 239.5 190.4 236.5 C191.3 235.8 192.6 235.0 193.7 235.1 C200.9 235.3 205.6 230.6 210.9 226.9 C211.4 226.6 211.7 225.8 212.1 225.2 C211.3 225.2 210.4 224.9 209.7 225.2 C207.2 226.3 204.7 227.5 202.2 228.7 C196.3 231.5 190.4 232.3 184.6 228.7 C183.6 228.1 182.8 227.3 181.8 227.1 C179.7 226.7 177.5 226.6 175.4 226.5 C177.2 228.0 178.9 229.7 180.9 230.9 C182.5 231.9 184.5 232.3 186.4 232.9 C185.0 234.5 183.7 236.2 182.2 237.6 C170.5 248.1 158.4 257.8 142.5 261.4 C132.5 263.7 123.7 260.8 115.5 255.5 C112.1 253.4 115.9 252.6 116.8 252.2 C128.1 247.0 139.8 242.5 150.9 236.9 C159.2 232.6 166.8 227.0 174.8 222.1 C176.0 221.4 178.1 220.6 178.8 221.1 C182.6 224.1 185.6 221.9 188.8 220.1 C192.6 217.9 196.4 215.8 200.2 213.7 C200.6 213.4 200.8 212.7 201.1 212.3 C200.6 212.3 199.9 212.3 199.4 212.5 C195.5 213.9 191.7 215.4 187.8 217.0 C181.7 219.6 176.5 216.6 171.2 214.3 C170.1 213.9 169.2 212.6 168.1 212.3 C166.3 211.8 164.3 211.8 162.4 211.5 C163.7 213.0 164.9 214.7 166.5 216.0 C167.9 217.2 169.7 218.0 171.4 219.0 C169.6 220.3 168.0 221.6 166.1 222.7 C157.2 227.7 148.4 232.9 139.3 237.5 C131.5 241.4 123.3 244.1 114.5 244.0 C104.7 244.0 96.9 239.0 89.1 234.0 C88.7 233.6 88.3 232.6 88.5 232.0 C88.6 231.5 89.6 231.1 90.2 231.0 C106.6 229.1 121.8 223.1 136.9 217.0 C144.6 213.9 152.1 210.2 159.8 207.1 C162.0 206.2 165.2 205.6 167.1 206.5 C171.6 208.8 175.8 208.6 180.3 207.0 C183.6 205.8 186.8 204.4 190.1 203.0 C191.2 202.5 192.2 201.9 193.3 201.4 C192.0 201.3 190.7 200.9 189.5 201.1 C186.0 201.6 182.5 202.0 179.3 203.1 C175.1 204.6 171.2 204.5 167.5 202.0 C161.9 198.2 157.8 203.3 153.3 204.8 C141.5 208.7 130.1 214.2 118.1 217.5 C103.6 221.4 88.4 224.1 73.9 217.8 C67.9 215.2 62.9 210.5 57.5 206.6 C55.6 205.2 54.1 203.1 52.5 201.4 C54.9 201.6 57.4 202.1 59.9 202.0 C72.5 201.4 85.0 201.0 97.6 199.9 C106.6 199.1 115.5 197.6 124.4 195.9 C132.1 194.5 139.6 192.4 147.2 190.7 C151.1 189.8 154.5 189.6 158.6 192.2 C161.8 194.3 167.0 194.1 171.3 193.8 C175.2 193.6 179.1 192.0 183.0 191.0 C184.2 190.7 185.2 190.0 186.3 189.5 C185.2 189.0 184.1 188.1 182.9 188.1 C179.6 188.2 176.1 188.3 172.9 189.1 C163.6 191.2 154.6 188.0 149.3 180.5 C148.4 179.3 147.3 178.1 146.1 177.3 C144.8 176.4 143.2 175.9 141.7 175.2 C142.3 176.7 142.7 178.3 143.6 179.6 C144.4 180.9 145.6 181.9 146.7 182.8 C147.5 183.4 148.5 183.7 149.4 184.1 C148.4 184.7 147.5 185.7 146.4 185.9 C133.7 188.7 121.0 192.1 108.2 193.8 C90.9 196.0 73.6 196.2 56.6 190.1 C44.2 185.6 34.5 178.0 26.6 167.6 C25.9 166.8 25.9 165.4 25.6 164.3 C26.7 164.2 27.9 163.8 29.0 164.0 C35.8 165.3 42.5 166.8 49.4 168.0 C55.7 169.1 62.2 170.5 68.6 170.9 C85.0 171.9 101.4 172.7 117.8 172.9 C126.5 173.0 135.2 171.6 143.9 171.1 C145.4 171.0 147.5 171.5 148.2 172.5 C153.5 180.0 161.4 177.8 168.5 177.9 C173.0 177.9 177.6 176.7 182.1 176.0 C182.9 175.9 183.6 175.6 184.3 175.5 C183.5 175.0 182.7 174.1 181.9 174.1 C175.8 173.9 169.6 174.2 163.4 173.9 C160.4 173.8 157.1 173.2 154.3 171.9 C147.5 168.7 143.0 163.0 139.4 156.6 C139.1 156.1 139.2 155.4 139.1 154.8 C139.7 154.9 140.4 154.7 140.8 155.0 C152.2 162.2 164.9 161.0 177.4 161.0 C178.0 161.0 178.6 160.8 179.2 160.7 C178.7 160.1 178.3 159.2 177.7 159.1 C173.5 158.3 169.3 157.2 165.0 157.1 C157.1 156.8 149.2 155.9 143.6 149.9 C139.8 145.9 137.4 140.7 134.4 136.1 C134.2 135.7 134.5 134.3 134.7 134.3 C135.5 134.2 136.5 134.2 137.4 134.5 C144.7 137.2 152.0 140.4 159.5 142.5 C165.3 144.1 171.5 144.3 177.5 144.9 C178.1 145.0 178.7 144.0 179.3 143.5 C178.4 143.0 177.5 142.3 176.5 142.0 C170.4 140.6 164.2 139.4 158.1 138.0 C144.3 134.9 136.2 125.7 131.4 113.0 C131.1 112.4 131.0 111.7 130.8 111.1 C131.3 111.3 131.9 111.4 132.5 111.6 C145.7 116.2 159.0 120.8 172.3 125.4 C177.2 127.1 182.2 128.8 187.2 130.3 C197.2 133.5 201.6 141.2 203.3 150.8 C204.9 159.7 205.8 168.8 207.4 177.7 C209.7 190.4 214.9 201.9 222.9 212.3 C228.8 219.8 236.1 225.1 244.3 229.4 C245.5 230.0 247.0 230.1 248.4 230.4 C247.4 229.5 246.6 228.4 245.5 227.7 C232.5 219.7 222.8 208.8 216.8 194.8 C212.6 185.2 210.1 175.0 209.3 164.4 C208.8 158.8 207.4 153.2 206.3 147.7 C206.3 147.3 205.4 146.9 205.5 146.6 C205.6 145.0 205.9 143.5 206.1 142.0 C207.0 143.0 208.0 143.8 208.8 144.9 C214.4 153.5 218.5 162.7 219.4 173.0 C219.4 173.7 219.5 174.3 219.8 174.9 C220.4 176.0 221.2 177.0 221.9 178.0 C222.0 176.9 222.3 175.8 222.3 174.7 C222.7 159.4 216.1 148.0 204.8 137.4 C192.9 126.0 177.7 123.7 163.7 117.9 C155.3 114.5 146.0 112.8 139.3 105.6 C132.4 98.0 128.4 89.4 128.4 79.1 C128.4 78.4 128.6 77.8 128.7 77.2 C129.1 77.5 129.7 77.8 130.1 78.2 C142.8 90.4 158.8 96.8 174.8 103.0 C189.1 108.5 203.9 113.1 216.3 122.2 C224.8 128.4 233.3 135.7 235.4 146.8 C236.6 153.1 236.3 159.8 235.5 166.2 C233.8 181.9 237.9 198.8 256.6 205.0 C263.1 207.1 269.7 206.8 275.8 203.9 C285.2 199.5 294.9 199.2 304.8 200.9 C306.6 201.2 308.5 200.5 310.4 200.3 C308.8 199.5 307.3 198.7 305.8 197.9 C299.3 194.9 292.7 195.9 285.9 196.7 C284.3 196.9 281.4 194.4 280.5 192.5 C277.0 185.4 277.9 178.0 280.4 170.7 C280.7 169.7 281.2 168.7 281.3 167.6 C281.4 166.8 280.9 165.9 280.7 165.0 C279.9 165.5 278.8 165.8 278.4 166.6 C277.3 168.7 276.4 171.0 275.3 173.3 C274.5 174.9 273.8 176.7 272.6 178.1 C271.7 179.3 270.1 180.1 268.9 181.0 C268.7 179.6 268.3 178.1 268.4 176.7 C269.0 169.8 270.2 162.8 270.2 155.9 C270.2 149.5 272.0 144.2 274.9 138.8 C276.2 136.5 276.2 133.6 276.8 131.0 C275.0 132.9 272.9 134.6 271.4 136.7 C269.8 139.1 268.7 141.9 267.3 144.5 C267.0 145.0 266.2 145.3 265.6 145.7 C265.5 145.1 265.4 144.5 265.4 143.8 C265.9 129.5 268.7 115.8 277.1 103.7 C278.4 101.8 279.1 99.4 280.0 97.2 C278.1 98.7 275.8 99.9 274.2 101.8 C271.6 104.9 269.5 108.4 267.1 111.8 C266.6 112.4 265.9 112.9 265.3 113.4 C265.0 112.4 264.3 111.3 264.6 110.4 C265.3 108.1 266.2 105.7 267.3 103.6 C271.4 96.1 275.5 88.6 279.7 81.2 C281.1 78.6 282.9 76.7 278.2 75.3 C266.1 71.6 261.5 60.8 256.6 50.6 C256.3 49.8 257.2 48.4 257.6 47.3 C258.3 47.8 259.1 48.2 259.6 48.8 C268.6 58.2 280.2 62.9 292.2 66.9 C293.0 67.2 294.3 65.9 295.4 65.4 C294.6 64.7 294.0 63.7 293.2 63.4 C287.6 61.1 282.1 59.1 278.0 54.2 C273.5 48.8 270.8 43.0 271.4 35.9 C271.4 35.3 271.6 34.7 271.8 34.1 C272.3 34.5 272.9 34.8 273.2 35.3 C280.4 47.1 292.4 48.8 304.5 50.0 C314.1 50.9 323.7 51.2 333.2 52.0 C342.1 52.8 351.0 53.9 360.0 55.0 C366.1 55.8 371.2 58.8 373.9 64.3 C376.8 69.7 380.7 71.2 386.6 71.1 C397.1 71.0 405.6 75.5 411.4 84.5 C414.6 89.6 413.8 100.2 409.7 104.2 C409.2 104.6 408.6 104.7 408.0 105.0 C407.8 104.5 407.5 103.9 407.4 103.4 C406.1 96.4 404.4 94.5 397.6 95.1 C388.3 96.0 379.0 97.6 369.8 99.1 C368.0 99.3 366.2 100.3 364.7 101.3 C364.0 101.8 363.8 103.2 363.4 104.2 C364.2 104.1 365.1 104.2 365.9 104.0 C376.8 101.8 387.7 100.2 398.3 105.1 C399.5 105.6 400.4 106.9 401.4 107.8 C400.2 108.2 398.9 109.0 397.7 108.9 C391.2 108.7 384.7 108.3 378.1 108.0 C377.0 108.0 375.8 107.9 374.7 108.2 C374.1 108.4 373.8 109.5 373.4 110.1 C374.0 110.4 374.6 110.9 375.3 111.0 C381.0 112.0 386.8 112.8 392.5 114.1 C393.9 114.4 395.1 116.1 396.4 117.1 C395.1 117.4 393.7 118.0 392.5 117.9 C386.8 117.6 381.1 116.8 375.4 116.6 C370.8 116.4 366.0 116.2 361.6 117.3 C360.0 117.7 358.8 121.8 358.5 124.3 C357.4 131.8 361.6 136.8 367.4 140.4 C374.1 144.7 380.9 148.8 389.3 149.1 C390.7 149.2 392.0 150.6 393.3 151.4 C392.1 152.0 390.8 152.9 389.6 152.9 C385.6 153.1 381.6 152.9 377.6 153.1 C376.5 153.1 375.4 153.7 374.4 154.1 C375.4 154.7 376.3 155.8 377.3 155.9 C384.6 156.5 391.8 158.1 397.8 162.1 C404.9 167.0 411.3 172.8 418.0 178.2 C418.6 178.8 418.6 180.0 418.9 181.0 C417.9 180.6 416.8 180.4 415.9 180.0 C412.8 178.4 409.9 176.5 406.9 175.1 C405.6 174.5 404.0 174.6 402.5 174.4 C403.5 175.4 404.3 176.7 405.5 177.5 C407.7 179.3 410.0 181.0 412.4 182.5 C422.2 188.9 426.1 198.9 429.3 209.4 C430.3 212.5 430.7 215.8 431.3 219.1 C431.4 219.6 431.1 220.3 431.0 220.9 C430.5 220.5 429.9 220.2 429.6 219.7 C427.5 216.9 425.6 213.9 423.3 211.3 C422.1 210.0 420.3 209.2 418.7 208.2 C419.2 209.9 419.2 212.0 420.2 213.2 C427.3 221.7 430.4 232.0 430.1 242.5 C429.8 255.4 428.8 268.5 422.3 280.2 C420.2 284.0 417.3 287.4 414.8 291.1 C414.3 291.9 414.1 292.9 413.7 293.8 C414.9 293.7 416.7 294.0 417.3 293.4 C419.5 291.1 421.5 288.5 423.3 285.9 C429.0 278.2 431.4 269.4 432.4 260.1 C432.9 254.9 433.6 249.7 434.4 244.5 C434.6 243.6 435.5 242.4 436.3 242.1 C448.0 237.8 457.2 230.0 466.7 222.3 C480.1 211.6 490.2 198.0 499.6 184.0 C502.1 180.3 502.3 175.1 504.5 171.0 C513.1 155.0 527.2 146.9 543.3 159.5 C544.2 160.2 544.6 161.5 545.3 162.5 C544.2 162.7 543.1 163.0 542.0 162.9 C541.3 162.9 540.6 162.3 539.9 162.1 C532.6 159.6 529.6 161.3 525.2 167.6 C522.8 171.1 518.6 173.2 515.2 176.0 C514.2 176.8 513.0 177.5 512.4 178.6 C511.5 180.2 511.1 182.0 510.6 183.7 C512.0 182.8 513.5 182.2 514.7 181.1 C521.6 175.0 530.0 171.8 538.7 170.2 C548.6 168.3 555.6 175.2 557.3 185.3 C557.7 187.5 557.5 189.8 557.3 192.0 C557.2 192.7 556.4 193.3 555.9 193.9 C555.4 193.4 554.8 192.8 554.4 192.2 C554.0 191.6 553.6 190.9 553.4 190.1 C551.1 181.9 549.2 181.0 541.2 184.7 C536.1 187.0 531.4 191.0 526.1 191.6 C519.3 192.5 514.2 195.5 509.3 199.6 C508.6 200.1 508.1 200.9 507.5 201.6 C508.6 201.7 509.9 202.3 510.8 201.9 C513.9 200.5 516.8 198.7 519.8 197.1 C528.2 192.6 543.0 195.8 547.0 201.0 C550.0 204.9 551.6 213.1 549.3 217.2 C549.0 217.7 547.7 218.0 546.9 217.9 C546.3 217.8 545.5 216.9 545.4 216.2 C544.4 209.6 544.4 209.6 537.5 210.0 C532.0 210.3 526.4 210.6 520.8 211.1 C519.6 211.2 518.2 211.7 517.4 212.5 C514.2 216.1 511.4 220.1 508.2 223.6 C504.7 227.4 506.1 230.7 508.8 233.9 C510.1 235.4 511.7 236.7 513.0 238.2 C513.9 239.2 514.5 240.5 515.2 241.6 C513.9 242.1 512.6 242.5 511.3 243.0 C510.0 243.6 508.7 244.3 507.4 244.9 C508.6 245.6 509.8 246.5 511.2 247.0 C516.7 249.0 522.2 250.0 528.0 248.1 C528.9 247.7 530.2 248.3 531.3 248.4 C531.0 249.1 530.8 249.9 530.4 250.4 C525.3 256.3 513.1 259.7 506.0 256.9 C499.8 254.5 490.5 245.9 492.4 236.4 C492.6 235.7 492.2 235.0 492.1 234.3 C491.2 234.7 489.9 234.8 489.4 235.5 C485.3 241.1 481.8 247.3 477.2 252.4 C469.5 261.2 461.2 269.6 452.9 277.8 C450.7 280.0 447.6 281.2 445.1 283.0 C444.1 283.7 443.4 284.8 442.6 285.7 C443.7 286.1 444.9 287.0 446.0 286.9 C449.6 286.5 453.1 285.4 456.7 285.1 C458.2 285.0 459.8 286.1 461.4 286.7 C460.2 287.5 459.1 288.5 457.8 289.0 C451.9 291.3 445.9 293.4 440.1 295.9 C438.7 296.5 437.6 298.0 436.4 299.1 C435.9 299.4 435.4 300.0 435.0 300.0 C428.0 299.3 420.8 299.0 413.9 297.8 C410.5 297.3 408.2 289.2 409.4 284.7 C412.7 271.4 408.7 259.9 400.4 249.7 C397.2 245.7 392.8 242.6 389.0 239.1 C388.6 238.8 388.0 238.6 387.6 238.3 C387.5 238.9 387.2 239.7 387.4 240.2 C388.3 241.7 389.2 243.3 390.4 244.4 C398.1 251.8 403.8 260.5 405.8 271.1 C406.8 276.3 408.0 281.9 404.1 286.9 C403.4 287.8 403.6 290.1 404.2 291.2 C412.1 305.0 422.0 316.3 439.2 318.1 C442.7 318.4 446.3 319.4 449.6 320.8 C464.9 327.4 481.4 319.0 491.1 308.6 C495.6 303.8 500.7 302.0 507.1 300.6 C513.6 299.2 519.1 299.8 525.1 301.9 C532.5 304.6 537.8 311.4 538.4 319.3 C538.5 321.3 538.9 323.3 538.6 325.1 C538.3 327.6 536.9 327.5 535.6 325.7 C535.1 325.1 534.8 324.4 534.5 323.7 C531.6 315.4 529.5 314.4 521.3 316.5 C519.5 316.9 517.1 316.5 515.6 315.6 C507.5 310.7 500.1 313.0 492.8 317.1 C491.2 318.0 489.5 318.9 488.0 319.9 C487.2 320.5 486.6 321.3 485.9 322.0 C487.0 322.2 488.3 322.8 489.3 322.5 C493.5 321.1 497.7 319.6 501.9 317.9 C505.9 316.4 509.4 316.7 513.2 319.1 C515.8 320.7 519.2 321.4 522.4 321.9 C528.9 323.0 532.0 325.6 533.3 332.4 C534.1 336.0 535.5 338.4 539.5 339.8 C555.4 345.3 567.4 356.0 576.3 370.1 C584.5 383.0 589.8 396.9 591.5 412.4 C594.4 438.2 587.3 460.6 571.2 480.7 C559.6 495.3 545.1 505.7 527.4 511.2 C520.4 513.4 512.8 514.0 505.5 515.0 C493.7 516.6 482.1 514.8 471.0 510.9 C459.0 506.8 448.3 500.5 438.7 492.1 C429.6 484.1 422.3 474.8 417.1 464.1 C412.3 454.4 409.5 444.1 408.2 433.2 C405.6 412.8 409.6 393.9 419.4 376.1 C421.1 372.9 423.4 370.1 425.3 367.0 C426.8 364.6 428.6 362.5 431.4 364.7 C433.8 366.6 435.8 369.1 433.3 372.5 C426.9 381.4 422.4 391.2 419.9 402.0 C413.9 427.7 418.4 451.2 434.3 472.4 C442.3 483.1 452.4 491.4 464.3 497.4 C473.1 501.8 482.4 503.9 492.2 505.1 C507.6 507.0 522.1 503.9 535.5 496.8 C558.5 484.6 574.4 465.9 580.2 440.1 C585.8 414.9 579.8 391.8 564.0 371.1 C557.3 362.2 548.9 355.4 539.3 350.1 C536.4 348.5 532.9 346.6 531.2 352.1 C530.9 353.3 529.0 354.0 527.8 354.9 C527.6 353.5 526.9 351.7 527.5 350.6 C529.9 345.9 527.7 342.2 524.7 339.1 C523.5 337.8 521.1 337.3 519.1 337.1 C516.1 336.8 512.4 338.1 510.1 336.8 C505.0 333.9 499.9 335.5 494.8 335.1 C493.7 335.0 492.5 336.3 491.4 337.0 C492.5 337.6 493.5 338.7 494.7 338.9 C496.5 339.2 498.4 339.0 500.2 339.0 C513.4 339.4 522.2 348.7 522.2 361.2 C522.2 364.1 519.9 367.1 518.7 370.1 C518.4 371.1 518.1 372.0 517.8 372.9 C518.7 372.9 519.5 373.0 520.4 373.0 C528.4 373.0 536.4 372.8 544.4 373.2 C545.5 373.3 547.2 376.3 547.2 377.9 C547.5 389.1 547.2 400.3 547.4 411.4 C547.6 422.3 548.2 433.1 548.2 444.0 C548.2 446.6 546.8 449.6 545.1 451.6 C540.8 456.5 535.9 460.8 531.4 465.5 C526.1 470.9 521.0 476.5 515.8 482.0 C512.9 485.1 509.9 486.0 505.4 485.3 C500.3 484.5 495.0 485.8 489.8 486.0 C482.6 486.1 475.4 486.3 468.3 485.8 C466.0 485.6 463.5 483.5 461.6 481.7 C454.0 474.3 446.3 466.8 439.1 459.0 C437.1 456.9 435.6 453.5 435.5 450.6 C434.9 434.4 434.7 418.2 434.4 402.0 C434.4 401.3 434.6 400.5 434.3 400.0 C431.3 395.4 435.7 395.6 437.9 395.1 C441.3 394.4 443.5 396.0 443.4 399.9 C443.3 405.1 443.3 410.3 443.4 415.4 C443.7 426.8 444.0 438.2 444.4 449.5 C444.5 450.8 445.3 452.3 446.2 453.2 C452.8 460.0 459.5 466.8 466.4 473.3 C467.9 474.8 470.6 475.8 472.7 475.9 C483.7 476.1 494.7 476.1 505.7 475.9 C507.5 475.9 509.6 475.1 510.8 473.9 C519.1 465.9 527.3 457.8 535.2 449.5 C536.9 447.6 538.2 444.4 538.2 441.9 C538.5 423.7 538.2 405.5 538.5 387.4 C538.6 383.0 536.4 382.1 533.3 382.1 C511.7 381.9 490.0 381.9 468.3 382.1 C461.6 382.2 461.4 382.9 461.4 389.5 C461.4 406.0 461.2 422.5 461.5 439.0 C461.5 441.6 463.0 444.4 464.6 446.6 C472.3 457.5 482.4 462.3 496.0 460.2 C500.6 459.5 504.6 459.1 507.6 455.3 C508.8 453.8 510.3 452.3 511.8 451.1 C518.5 445.7 521.4 439.4 520.6 430.4 C519.8 421.8 521.0 412.9 521.4 404.2 C521.5 400.4 519.8 398.9 516.1 399.0 C504.9 399.1 493.7 399.1 482.6 398.9 C479.4 398.9 478.2 399.9 478.3 403.2 C478.5 408.8 478.4 414.5 478.4 420.2 C478.4 422.9 478.7 424.9 482.4 425.1 C486.7 425.3 485.3 422.6 485.3 420.7 C485.5 416.2 483.8 410.0 486.1 407.7 C488.3 405.5 494.5 407.1 499.0 407.0 C500.7 407.0 502.3 407.0 504.0 407.0 C512.5 407.0 514.0 408.7 513.4 416.8 C512.9 423.0 512.6 429.2 512.4 435.4 C512.2 441.4 502.9 450.9 496.8 451.0 C495.1 451.0 493.4 450.6 491.8 451.1 C483.4 453.3 478.3 447.4 472.4 443.5 C471.8 443.0 471.7 441.8 471.4 440.9 C472.2 441.0 473.0 441.0 473.8 441.0 C480.5 441.3 487.2 441.8 493.9 442.0 C499.5 442.1 504.3 437.2 504.4 431.7 C504.4 428.8 504.3 426.0 504.4 423.2 C504.6 419.1 504.4 416.4 498.8 415.5 C494.2 414.7 494.6 417.1 494.5 419.2 C494.1 423.3 494.4 427.5 494.3 431.7 C494.3 432.5 493.7 433.9 493.4 433.9 C485.9 433.7 478.3 433.4 470.8 432.9 C470.3 432.8 469.4 431.1 469.4 430.2 C469.3 418.2 469.4 406.2 469.3 394.2 C469.3 391.6 469.9 390.9 472.5 390.9 C482.4 391.1 492.4 391.0 502.3 391.0 C510.3 391.0 518.2 391.1 526.2 390.9 C529.5 390.9 530.5 392.0 530.4 395.2 C530.3 410.0 530.4 424.9 530.3 439.7 C530.3 441.6 529.6 444.0 528.4 445.3 C521.8 452.5 515.1 459.6 508.2 466.5 C506.7 467.9 504.0 468.8 501.8 468.9 C494.8 469.2 487.8 468.7 480.8 469.1 C475.8 469.4 472.0 467.9 468.8 464.0 C464.0 458.3 458.9 452.9 454.1 447.1 C453.0 445.8 452.4 443.6 452.4 441.9 C452.3 422.2 452.4 402.5 452.4 382.9 C452.4 374.8 454.2 373.0 462.6 373.0 C478.1 373.0 493.6 373.0 509.1 373.0 C515.6 373.0 513.3 367.9 513.1 365.0 C513.0 362.6 513.0 359.0 507.6 359.6 C503.9 360.0 499.1 357.4 495.9 354.8 C485.6 346.2 473.9 346.1 462.0 348.3 C458.1 349.0 454.5 352.9 451.3 355.9 C450.4 356.7 450.8 359.8 451.5 361.4 C452.1 363.0 453.9 364.1 455.2 365.4 C457.3 367.5 456.9 368.9 454.4 370.5 C447.5 375.3 443.1 375.0 439.0 368.0 C434.6 360.7 433.0 353.0 438.5 345.3 C438.9 344.8 438.9 343.9 439.1 343.3 C438.2 343.2 437.0 342.7 436.2 343.1 C425.2 347.9 413.4 347.3 401.9 346.8 C395.6 346.6 388.7 346.4 383.9 341.0 C382.9 339.9 382.3 338.6 381.4 337.6 C380.6 336.7 379.5 336.0 378.6 335.3 C378.5 336.6 378.0 338.1 378.4 339.2 C379.9 342.9 381.7 346.4 385.8 348.0 C386.8 348.4 387.5 349.5 388.4 350.3 C387.3 350.5 386.3 351.0 385.3 351.0 C380.4 350.7 375.4 350.8 370.7 349.9 C363.1 348.4 362.4 347.1 362.4 339.7 C362.4 338.7 362.4 337.7 362.3 336.7 C362.3 336.1 361.9 335.6 361.7 335.0 C361.3 335.5 360.5 335.9 360.4 336.4 C360.0 338.8 358.6 342.1 359.6 343.3 C363.0 347.3 359.4 346.2 357.9 345.9 C353.9 345.2 350.0 344.2 346.1 343.2 C342.8 342.3 342.9 340.5 344.1 337.7 C346.1 332.7 347.4 327.4 349.5 322.5 C351.7 317.6 350.0 313.8 346.2 311.6 C338.7 307.1 333.9 300.3 329.3 293.2 C328.6 292.1 327.6 291.2 326.7 290.2 C326.9 291.7 326.9 293.3 327.5 294.6 C331.2 302.7 336.8 309.1 344.0 314.2 C348.9 317.5 345.7 321.9 345.0 325.7 C343.6 334.6 337.6 338.5 329.0 340.1 C319.5 341.9 310.3 344.9 300.9 346.9 C293.7 348.4 286.3 348.5 279.2 350.2 C273.5 351.5 268.1 354.0 262.7 356.3 C261.7 356.7 261.2 358.5 260.5 359.6 C261.5 359.4 262.5 359.2 263.4 359.0 C272.1 357.0 280.6 353.8 289.8 355.0 C301.7 356.6 313.3 359.8 322.4 367.8 C337.7 381.0 341.2 398.1 336.5 417.3 C335.3 422.2 333.9 427.2 332.3 432.0 C331.9 433.2 330.7 434.0 329.9 435.0 C329.6 433.6 329.1 432.3 329.0 430.9 C328.7 428.0 328.7 425.0 328.3 422.0 C328.2 421.3 327.1 420.7 326.5 420.0 C326.1 420.7 325.5 421.4 325.4 422.1 C324.4 431.9 323.0 441.3 318.0 450.1 C315.1 455.4 317.9 461.4 321.6 465.5 C331.1 476.0 341.3 485.7 355.2 490.4 C362.2 492.8 368.4 492.2 375.0 488.2 C382.1 484.0 389.7 483.0 396.4 491.5 C397.1 492.3 398.6 492.6 399.8 493.0 C407.4 495.6 411.8 500.7 412.4 509.0 C412.6 511.8 413.2 514.7 413.3 517.5 C413.3 518.3 412.1 519.2 411.4 520.0 C410.7 519.2 409.9 518.6 409.4 517.7 C407.6 514.3 406.0 510.8 404.2 507.4 C403.7 506.5 402.6 505.9 401.7 505.1 C401.7 506.4 401.7 507.6 401.7 508.8 C401.9 513.8 402.3 518.8 402.2 523.7 C402.2 524.5 400.7 525.2 399.8 526.0 C399.3 525.1 398.4 524.1 398.4 523.2 C398.7 519.9 397.8 518.1 394.2 517.9 C393.2 517.8 391.6 516.0 391.5 514.9 C390.4 501.2 382.1 494.0 367.6 498.0 C364.1 498.9 360.5 499.2 357.0 500.0 C355.8 500.3 354.7 501.1 353.6 501.7 C354.7 502.5 356.0 504.0 357.1 503.9 C361.5 503.4 365.9 502.8 370.1 501.6 C375.2 500.2 380.0 501.0 383.3 504.7 C387.3 509.1 390.2 514.5 387.4 521.1 C386.9 522.2 386.9 523.6 386.2 524.6 C385.4 525.8 384.2 526.7 383.1 527.7 C382.9 526.7 382.5 525.6 382.4 524.6 C381.6 520.0 378.1 517.7 373.6 519.4 C368.7 521.3 364.3 520.0 359.6 519.0 C355.8 518.2 351.5 518.8 347.5 519.4 C336.6 521.0 328.3 521.1 323.3 508.0 C323.0 507.2 322.1 506.7 321.4 506.0 C321.1 506.7 320.6 507.4 320.4 508.2 C319.6 510.5 319.0 512.7 318.3 515.0 C316.7 512.9 314.2 511.0 313.7 508.7 C310.3 491.5 298.7 482.0 283.9 474.9 C273.2 469.8 272.2 463.8 277.0 451.7 C279.4 445.7 281.7 439.3 282.1 432.9 C283.0 421.6 275.6 413.3 264.6 411.0 C262.0 410.4 259.4 409.7 256.9 409.0 C252.7 407.7 250.4 405.5 250.2 400.4 C249.9 393.8 249.0 387.0 247.2 380.7 C245.0 372.7 247.3 365.9 251.4 359.7 C256.0 352.6 261.4 346.1 266.5 339.4 C266.7 339.0 267.0 338.7 267.2 338.3 C266.6 338.3 265.9 338.1 265.5 338.4 C257.4 344.6 250.0 351.3 246.3 361.3 C245.8 362.7 244.2 363.8 243.1 365.0 C242.9 363.6 242.4 362.3 242.4 360.9 C242.3 354.4 242.4 347.9 242.3 341.4 C242.3 340.7 242.1 339.9 242.0 339.1 C241.4 339.8 240.7 340.4 240.4 341.2 C237.6 349.6 237.8 358.0 241.3 366.2 C242.0 367.7 242.1 369.5 242.4 371.2 C243.5 379.1 244.2 387.1 245.8 394.8 C248.8 409.4 246.5 422.9 239.1 435.8 C234.8 443.4 229.5 450.1 221.5 454.3 C220.3 454.9 218.8 455.2 217.4 455.6 C218.1 454.2 218.5 452.6 219.5 451.5 C225.2 445.1 227.4 437.6 227.3 429.2 C227.3 428.5 227.0 427.8 226.8 427.0 C226.3 427.7 225.6 428.2 225.4 428.9 C224.0 433.0 222.6 437.1 221.4 441.3 C219.7 447.2 215.9 451.4 210.5 453.9 C202.5 457.6 194.1 460.3 186.2 464.1 C172.2 470.9 167.0 482.6 171.9 497.0 C173.8 502.5 179.9 505.0 186.1 502.6 C195.3 499.0 202.2 502.5 209.0 508.1 C212.9 511.2 217.3 514.0 217.3 519.5 C217.3 524.4 216.5 529.3 215.6 534.1 C215.5 534.9 213.3 535.4 212.1 536.0 C211.8 535.0 211.4 533.9 211.4 532.9 C211.6 529.6 212.0 526.8 206.9 528.9 C203.3 530.3 201.9 528.1 201.1 524.2 C200.4 520.1 198.7 515.5 195.9 512.6 C194.0 510.5 189.5 510.7 186.1 510.1 C185.7 510.0 185.0 511.4 184.4 512.1 C185.2 512.4 185.9 512.9 186.8 513.0 C194.4 513.5 197.2 516.7 197.4 524.6 C197.5 529.4 197.2 534.0 193.4 537.5 C192.8 538.0 192.2 538.5 191.6 539.9 C191.2 538.3 190.3 537.5 190.4 537.0 C191.5 532.1 188.9 531.8 185.0 531.9 C178.7 532.2 178.3 531.6 177.4 523.7 C176.5 517.0 171.8 512.3 166.3 513.1 C165.2 513.2 164.3 514.3 163.4 515.0 C164.3 515.7 165.2 516.8 166.2 516.9 C172.6 517.9 176.9 527.1 173.3 532.5 C172.1 534.3 170.8 535.9 169.4 537.4 C168.4 538.4 167.1 539.1 165.9 539.9 C165.7 538.7 165.4 537.5 165.4 536.3 C165.2 531.7 163.0 530.2 157.7 531.0 C148.8 532.4 142.1 528.6 139.5 520.2 C138.2 516.1 137.9 511.8 137.4 507.5 C136.0 495.4 135.2 483.2 133.2 471.2 C131.1 458.1 135.3 449.9 147.7 446.0 C160.1 442.2 168.0 433.7 172.9 422.0 C175.7 415.2 172.7 408.6 172.4 401.9 C172.1 394.1 172.5 386.2 172.5 378.3 C172.6 375.6 172.7 372.8 172.8 370.1 C171.5 372.4 169.9 374.6 168.9 377.0 C161.5 395.8 153.1 414.1 141.1 430.4 C134.0 440.0 123.5 445.5 111.6 448.0 C103.9 449.7 96.2 449.8 88.8 446.9 C75.5 441.8 67.4 431.4 66.4 416.7 C65.4 401.7 72.2 389.6 81.9 379.2 C91.1 369.1 101.3 359.9 110.7 350.0 C117.2 343.2 122.6 335.5 125.7 326.3 C129.2 316.0 125.0 304.7 117.6 300.2 C114.7 298.5 109.8 299.2 106.1 300.0 C98.5 301.6 91.3 305.5 83.3 303.9 C78.3 302.9 73.4 301.2 68.6 299.6 C68.0 299.4 67.8 298.3 67.4 297.7 C68.4 297.1 69.5 296.4 70.6 296.0 C74.8 294.5 79.1 293.2 83.2 291.5 C84.0 291.2 84.4 290.0 85.0 289.1 C83.9 289.1 82.9 288.9 81.9 289.0 C75.2 290.2 68.5 294.5 61.9 289.0 C59.1 286.7 56.5 284.3 53.8 281.9 C53.5 281.6 53.4 280.6 53.7 280.3 C54.0 279.8 54.8 279.6 55.4 279.6 C62.2 279.7 69.1 279.9 75.9 279.9 C77.1 279.9 78.2 278.7 79.4 278.1 C78.3 277.7 77.3 277.2 76.2 277.0 C70.9 276.3 65.6 276.2 60.5 274.9 C54.0 273.1 50.0 268.1 47.7 261.8 C47.5 261.0 47.7 260.0 47.7 259.1 C48.6 259.4 49.5 259.6 50.3 260.0 C58.9 264.8 68.3 266.1 77.9 267.0 C93.7 268.4 109.9 269.0 123.3 279.1 C134.1 287.2 140.4 298.0 141.4 311.8 C142.6 328.1 135.9 341.5 125.5 353.2 C116.4 363.5 106.3 372.8 97.0 383.0 C88.9 391.9 82.5 401.7 83.3 414.8 C83.9 425.3 91.0 431.6 99.3 434.1 C111.7 437.7 127.6 429.0 134.0 417.6 C142.7 402.1 150.5 386.1 158.3 370.2 C164.3 357.8 170.1 345.2 180.3 335.9 C196.8 320.6 214.3 306.4 231.2 291.5 C235.3 288.0 240.3 284.2 241.8 279.5 C244.3 271.9 249.8 272.1 255.4 271.0 C263.1 269.5 268.4 264.9 271.8 258.0 C272.1 257.5 271.8 256.7 271.8 256.0 C271.1 256.4 270.3 256.6 269.8 257.1 C267.7 259.1 265.8 261.1 263.8 263.1 C259.5 267.3 253.9 268.0 248.4 267.9 C244.7 267.9 242.9 269.5 241.3 272.5 C236.9 280.2 231.2 286.8 223.1 290.7 C215.8 294.2 208.1 293.5 200.5 292.0 C200.1 291.9 199.4 291.4 199.4 291.3 C199.7 290.6 200.0 289.7 200.6 289.4 C209.8 284.0 216.1 276.0 221.7 267.3 C222.5 266.1 224.7 265.2 226.2 265.1 C232.8 264.9 239.6 266.1 245.8 264.7 C251.2 263.4 254.3 257.8 256.6 252.3 C256.9 251.7 256.9 251.4 256.9 251.1 C256.7 251.4 256.6 251.7 256.4 252.0 M380.4 170.5 C380.1 170.5 379.7 170.5 379.4 170.4 C379.7 170.6 380.1 170.8 380.4 171.5 C388.4 179.6 396.5 187.7 404.6 195.7 C405.0 196.2 405.6 196.5 406.0 196.8 C406.0 195.9 406.3 194.9 405.9 194.2 C400.3 183.3 391.6 175.7 380.4 170.5 M403.4 220.5 C403.1 220.5 402.7 220.5 402.4 220.4 C402.7 220.6 403.1 220.8 403.4 221.5 C404.7 224.6 406.4 227.6 407.3 230.8 C409.2 237.6 410.7 244.4 412.4 251.2 C412.5 251.8 413.0 252.4 413.3 253.0 C413.7 252.4 414.5 251.9 414.5 251.3 C414.6 248.4 414.8 245.4 414.3 242.6 C412.9 234.3 409.5 226.9 403.4 220.5 M338.4 133.5 C338.1 133.5 337.7 133.5 337.4 133.4 C337.7 133.6 338.1 133.8 338.4 134.5 C338.7 135.9 338.8 137.4 339.4 138.6 C344.4 148.2 352.6 153.7 363.0 155.9 C364.6 156.3 366.4 155.9 368.1 155.8 C366.7 154.9 365.3 153.6 363.8 153.1 C353.3 149.4 344.5 143.4 338.4 133.5 M366.4 207.5 C366.7 208.5 366.8 209.7 367.5 210.5 C372.9 218.0 374.9 226.6 375.4 235.7 C375.6 239.0 373.5 237.3 372.9 236.9 C368.7 234.3 364.6 231.7 360.8 228.8 C354.4 224.0 348.2 219.0 341.9 214.1 C341.3 213.6 340.6 213.4 339.9 213.0 C340.0 213.8 339.9 214.8 340.4 215.3 C343.3 218.6 345.8 222.5 349.3 224.9 C357.2 230.3 365.7 234.9 373.8 240.1 C376.0 241.4 377.8 243.3 379.8 245.0 C379.6 242.4 379.4 239.8 379.4 237.2 C379.2 225.5 376.7 214.7 366.4 207.5 M327.4 147.5 C333.5 158.0 342.5 165.6 351.8 173.2 C361.4 181.0 371.0 189.1 376.6 200.7 C377.2 201.9 378.2 202.8 379.0 203.8 C379.0 202.3 379.1 200.7 378.9 199.1 C378.9 198.4 378.3 197.8 377.9 197.1 C372.6 186.0 363.5 178.4 354.2 171.0 C348.5 166.4 342.9 161.7 337.7 156.7 C334.6 153.7 332.2 150.0 329.4 146.7 C329.1 146.3 328.1 146.5 327.4 147.5 M349.9 198.0 C344.9 190.1 339.2 183.1 332.0 177.0 C326.5 172.2 321.8 166.3 316.8 160.9 C316.1 160.3 315.4 159.8 314.6 159.2 C314.9 160.2 314.8 161.4 315.4 162.1 C318.6 166.3 321.9 170.5 325.4 174.5 C330.0 179.8 334.7 184.9 339.4 190.2 C345.8 197.3 349.6 205.7 351.4 215.1 C351.6 215.8 352.6 216.4 353.3 217.0 C353.6 216.3 354.4 215.4 354.3 214.8 C353.1 209.4 351.7 203.9 349.9 198.0 M353.4 106.5 C353.8 108.0 354.3 109.4 354.8 110.9 C355.7 109.7 356.7 108.5 357.6 107.3 C357.9 106.8 358.2 106.2 358.3 105.6 C359.5 100.4 362.8 97.1 367.6 95.0 C372.5 92.8 377.4 90.5 382.2 88.0 C387.6 85.2 390.7 79.6 389.3 75.5 C389.0 74.6 388.1 73.8 387.5 73.0 C386.9 73.8 385.7 74.5 385.6 75.3 C385.4 82.8 379.6 84.9 374.2 86.9 C364.8 90.5 356.7 95.2 353.4 106.5 M324.4 199.5 C323.3 196.8 322.8 193.6 321.1 191.4 C316.0 185.1 310.4 179.2 305.0 173.2 C304.6 172.8 304.1 172.6 303.6 172.3 C303.6 173.1 303.2 174.1 303.5 174.6 C306.1 178.3 308.3 182.6 311.7 185.6 C320.1 192.9 322.3 201.5 319.0 211.9 C318.8 212.5 318.9 213.3 318.8 213.9 C319.5 213.6 320.3 213.4 320.8 213.0 C325.0 209.7 324.3 205.0 324.4 199.5 M356.9 68.0 C351.4 68.0 345.9 67.9 340.4 68.1 C339.4 68.1 338.5 68.9 337.5 69.4 C338.3 69.9 339.2 70.9 340.1 70.9 C345.9 71.4 351.8 71.7 357.6 72.0 C358.5 72.1 359.4 72.3 360.4 72.5 C359.8 73.1 359.0 73.6 358.6 74.3 C357.5 76.4 356.6 78.6 355.7 80.8 C357.7 79.5 360.2 78.6 361.8 76.9 C363.7 74.8 364.8 71.9 366.3 69.4 C363.5 68.9 360.7 68.5 356.9 68.0 M263.4 273.5 C271.5 276.3 279.2 276.1 285.9 269.9 C286.4 269.5 286.7 268.8 287.0 268.2 C286.4 268.4 285.7 268.7 285.0 268.9 C279.0 270.1 273.4 273.7 266.8 271.1 C265.6 270.6 263.9 271.0 262.4 271.0 C262.6 271.7 262.7 272.3 263.4 273.5 M148.4 473.5 C148.7 469.0 149.0 464.5 149.3 460.0 C149.4 459.4 149.2 458.8 149.0 458.2 C148.7 458.4 148.3 458.6 148.0 458.9 C144.1 461.9 143.2 472.2 146.6 475.7 C147.0 476.2 147.8 476.2 148.4 476.5 C148.4 475.8 148.4 475.2 148.4 473.5 M289.4 462.5 C289.9 466.8 290.8 471.0 294.6 473.8 C295.1 474.1 295.6 474.5 296.0 474.8 C295.9 474.2 295.9 473.4 295.6 472.8 C294.2 469.1 292.7 465.4 291.4 461.6 C290.9 460.2 291.0 458.6 290.8 457.1 C290.3 458.6 289.8 460.0 289.4 462.5 M159.4 197.5 C158.0 196.5 156.7 195.3 155.2 194.5 C154.8 194.2 153.9 194.4 153.3 194.7 C153.0 194.8 152.8 195.9 152.9 196.0 C155.1 197.4 157.3 198.7 159.5 200.0 C159.5 199.5 159.4 199.0 159.4 197.5 M295.9 193.0 C296.7 193.5 297.5 194.0 298.3 194.6 C297.7 193.2 297.0 191.9 296.4 190.5 C296.1 190.1 295.9 189.6 295.7 189.2 C295.6 190.3 295.5 191.4 295.9 193.0 M377.4 169.5 C377.6 169.6 377.8 169.8 378.0 169.9 C377.9 169.6 377.9 169.3 377.4 169.5 M406.4 198.5 C406.6 198.6 406.8 198.8 407.0 198.9 C406.9 198.6 406.9 198.3 406.4 198.5 " fill="#C9A961" stroke="none"></path> <path d="M112.6 121.8 C100.7 116.7 88.7 112.5 77.5 106.8 C68.0 102.0 59.2 95.9 50.6 89.6 C36.5 79.2 24.5 66.6 16.2 51.1 C10.3 40.2 7.5 28.3 10.1 15.7 C10.4 14.3 10.1 12.8 10.4 11.4 C10.6 10.5 11.3 9.8 11.8 9.0 C12.7 9.6 14.1 10.1 14.3 10.8 C16.3 19.6 22.9 25.5 28.1 32.0 C33.7 39.0 39.7 45.7 46.5 51.4 C62.3 64.6 78.5 77.6 95.1 89.8 C104.3 96.7 114.7 101.9 124.4 108.1 C125.5 108.8 126.4 110.5 126.6 111.9 C127.9 117.9 130.9 122.7 135.5 126.7 C136.5 127.6 136.8 129.2 137.4 130.4 C136.2 130.0 135.1 129.5 133.9 129.1 C126.9 126.7 119.9 124.4 112.6 121.8 " fill="#C9A961" stroke="none"></path> <path d="M24.4 110.0 C18.1 103.2 11.6 96.9 6.7 89.6 C0.3 79.9 0.0 68.5 0.4 57.3 C0.4 56.6 1.2 55.9 1.6 55.3 C2.2 55.8 3.0 56.3 3.3 57.0 C7.5 67.5 16.8 73.4 24.6 80.4 C38.8 93.1 55.7 101.7 72.7 110.0 C89.5 118.3 107.2 124.2 124.9 130.0 C127.9 131.0 129.9 132.2 130.6 136.0 C131.5 140.2 132.8 145.0 137.7 147.1 C138.3 147.3 138.5 148.4 138.8 149.0 C138.0 149.4 137.0 150.1 136.2 149.9 C115.0 146.2 93.6 143.2 73.1 136.0 C55.6 129.9 39.0 122.3 24.4 110.0 " fill="#C9A961" stroke="none"></path> <path d="M40.1 155.3 C24.5 148.8 15.2 137.1 9.4 122.2 C8.6 120.2 8.3 118.2 7.7 116.2 C9.7 117.0 11.6 117.8 13.5 118.7 C34.5 129.1 56.4 137.0 78.9 142.9 C91.0 146.1 103.3 148.4 115.6 151.0 C121.6 152.2 127.8 153.0 133.8 154.0 C134.7 154.2 136.2 155.0 136.1 155.4 C135.9 159.7 139.0 162.0 141.5 164.8 C141.7 165.0 141.0 166.9 140.7 166.9 C124.2 167.3 107.6 168.5 91.2 167.7 C75.7 167.0 60.2 164.6 45.8 158.0 C44.0 157.2 42.2 156.3 40.1 155.3 " fill="#C9A961" stroke="none"></path> <path d="M111.1 68.3 C113.9 70.7 116.2 73.6 119.1 75.1 C123.8 77.3 125.1 81.4 125.2 85.5 C125.5 93.9 129.3 100.0 135.2 105.4 C136.1 106.2 136.7 107.4 137.4 108.5 C136.1 108.3 134.6 108.5 133.6 107.9 C126.1 103.7 118.7 99.5 111.5 95.0 C97.2 86.0 83.7 76.0 71.9 64.0 C61.4 53.4 53.2 41.2 50.6 26.4 C49.6 20.7 51.5 14.4 52.6 8.4 C53.1 5.5 54.9 2.8 56.1 0.0 C57.4 2.4 58.8 4.9 60.2 7.3 C68.2 21.4 76.9 34.9 88.4 46.5 C95.1 53.2 101.8 59.9 108.5 66.6 C109.1 67.2 110.1 67.5 111.1 68.3 " fill="#C9A961" stroke="none"></path> <path d="M565.4 410.0 C565.4 417.7 565.5 424.8 565.3 432.0 C565.2 439.6 564.9 447.3 564.2 455.0 C564.1 456.8 562.9 459.0 561.5 460.2 C552.4 468.6 543.2 476.9 533.8 484.9 C532.3 486.2 528.6 487.2 527.6 486.3 C525.4 484.4 526.9 481.9 528.8 480.0 C536.4 472.5 543.8 464.9 551.5 457.5 C554.2 454.8 555.4 452.0 555.5 448.1 C555.6 431.8 556.1 415.4 556.3 399.1 C556.4 397.2 556.2 395.3 559.0 396.0 C561.3 396.6 565.2 394.1 565.3 399.0 C565.5 402.5 565.4 406.0 565.4 410.0 " fill="#C9A961" stroke="none"></path> <path d="M194.4 284.0 C186.1 286.7 178.9 284.7 172.0 281.1 C171.4 280.7 171.0 279.9 170.5 279.3 C171.2 279.2 171.8 279.2 172.4 279.0 C184.0 273.9 193.6 265.9 201.9 256.6 C204.3 253.8 205.8 253.9 208.6 254.6 C212.5 255.6 216.6 256.2 220.6 257.0 C221.0 257.1 221.7 258.0 221.6 258.2 C216.6 267.4 210.9 276.2 201.3 281.5 C199.3 282.6 197.0 283.2 194.4 284.0 " fill="#C9A961" stroke="none"></path> <path d="M204.6 246.0 C204.6 245.7 204.7 245.4 204.9 245.1 C204.9 245.4 204.9 245.7 204.6 246.0 " fill="#C9A961" stroke="none"></path>     </svg>